<?xml version="1.0" encoding="UTF-8"?>
<svg width="72px" height="42px" viewBox="0 0 72 42" version="1.1" xmlns="http://www.w3.org/2000/svg" xmlns:xlink="http://www.w3.org/1999/xlink">
    <!-- Generator: Sketch 64 (93537) - https://sketch.com -->
    <title>Combined Shape Copy 2</title>
    <desc>Created with Sketch.</desc>
    <g id="Page-1" stroke="none" stroke-width="1" fill="none" fill-rule="evenodd">
        <g id="Desktop-HD-Copy-4" transform="translate(-1567.000000, -23.000000)" fill="#FFFFFF" fill-rule="nonzero">
            <path d="M1636.25248,23 L1636.25248,30.3759071 L1614.08911,30.3759071 L1613.81249,30.3839934 C1613.26423,30.4163384 1612.74587,30.5457184 1612.25743,30.7721335 C1611.68757,31.0362845 1611.18894,31.3918723 1610.76155,31.838897 C1610.33416,32.2859216 1609.98817,32.8040639 1609.7236,33.3933237 C1609.45902,33.9825835 1609.32673,34.6023222 1609.32673,35.2525399 C1609.32673,36.6342525 1609.79483,37.8026125 1610.73102,38.7576197 C1611.66722,39.712627 1612.80693,40.1901306 1614.15017,40.1901306 L1614.15017,40.1901306 L1625.81188,40.1901306 L1626.26063,40.1943534 C1630.11931,40.2675474 1633.18535,41.2922647 1635.45875,43.2685051 C1637.81958,45.3207547 1639,48.3788099 1639,52.4426705 L1639,52.4426705 L1639,52.7474601 L1638.99583,53.1642716 C1638.9179,57.0210251 1637.74905,59.9401431 1635.48927,61.9216255 C1633.14879,63.9738752 1629.88229,65 1625.68977,65 L1625.68977,65 L1601.27586,65 L1589.56897,31.5950653 L1589.50493,31.4355173 C1589.21141,30.7697491 1588.70977,30.436865 1588,30.436865 C1587.23563,30.436865 1586.71264,30.8229318 1586.43103,31.5950653 L1586.43103,31.5950653 L1574.72414,65 L1567,65 L1579.91379,28.425254 L1580.03896,28.0878424 C1580.6872,26.4281681 1581.67134,25.1792453 1582.99138,24.341074 C1584.39943,23.4470247 1586.06897,23 1588,23 C1589.93103,23 1591.60057,23.4470247 1593.00862,24.341074 C1594.41667,25.2351234 1595.44253,26.5965167 1596.08621,28.425254 L1596.08621,28.425254 L1606.417,57.685 L1627.09406,57.6850508 L1627.35158,57.6784132 C1628.53942,57.6164619 1629.53223,57.1208515 1630.33003,56.191582 C1631.18482,55.1959361 1631.61221,53.9869376 1631.61221,52.5645864 C1631.61221,51.2235123 1631.18482,50.0551524 1630.33003,49.0595065 C1629.47525,48.0638607 1628.39659,47.5660377 1627.09406,47.5660377 L1627.09406,47.5660377 L1615.24917,47.5660377 L1614.76575,47.5611611 C1612.53317,47.5156459 1610.62858,47.1515239 1609.05198,46.4687954 C1607.36276,45.7373004 1605.99917,44.7822932 1604.96122,43.6037736 C1603.92327,42.425254 1603.17024,41.1146589 1602.70215,39.6719884 C1602.23405,38.2293179 1602,36.796807 1602,35.3744557 C1602,33.6676343 1602.24422,32.0725689 1602.73267,30.5892598 C1603.22112,29.1059507 1604.00468,27.7953556 1605.08333,26.6574746 C1606.16199,25.5195936 1607.53575,24.6255443 1609.20462,23.9753266 C1610.87349,23.3251089 1612.88834,23 1615.24917,23 L1615.24917,23 L1636.25248,23 Z M1588,48 C1590.76142,48 1593,50.2385763 1593,53 C1593,55.7614237 1590.76142,58 1588,58 C1585.23858,58 1583,55.7614237 1583,53 C1583,50.2385763 1585.23858,48 1588,48 Z" id="Combined-Shape-Copy-2"></path>
        </g>
    </g>
</svg>